<?xml version="1.0" encoding="UTF-8" standalone="no"?>
<svg
   xmlns:dc="http://purl.org/dc/elements/1.1/"
   xmlns:cc="http://creativecommons.org/ns#"
   xmlns:rdf="http://www.w3.org/1999/02/22-rdf-syntax-ns#"
   xmlns:svg="http://www.w3.org/2000/svg"
   xmlns="http://www.w3.org/2000/svg"
   xmlns:sodipodi="http://sodipodi.sourceforge.net/DTD/sodipodi-0.dtd"
   xmlns:inkscape="http://www.inkscape.org/namespaces/inkscape"
   width="198.74458mm"
   height="136.86597mm"
   viewBox="0 0 198.74458 136.86597"
   version="1.1"
   id="svg8"
   inkscape:version="1.0 (4035a4fb49, 2020-05-01)"
   sodipodi:docname="logo.svg">
  <defs
     id="defs2" />
  <sodipodi:namedview
     inkscape:showpageshadow="true"
     showborder="true"
     fit-margin-bottom="0"
     fit-margin-right="0"
     fit-margin-left="0"
     fit-margin-top="0"
     height="210mm"
     units="mm"
     id="base"
     pagecolor="#ffffff"
     bordercolor="#666666"
     borderopacity="1.0"
     inkscape:pageopacity="0.0"
     inkscape:pageshadow="2"
     inkscape:zoom="0.7"
     inkscape:cx="378.15208"
     inkscape:cy="306.70571"
     inkscape:document-units="mm"
     inkscape:current-layer="layer1"
     inkscape:document-rotation="0"
     showgrid="false"
     inkscape:window-width="1600"
     inkscape:window-height="847"
     inkscape:window-x="-8"
     inkscape:window-y="-8"
     inkscape:window-maximized="1" />
  <metadata
     id="metadata5">
    <rdf:RDF>
      <cc:Work
         rdf:about="">
        <dc:format>image/svg+xml</dc:format>
        <dc:type
           rdf:resource="http://purl.org/dc/dcmitype/StillImage" />
        <dc:title></dc:title>
      </cc:Work>
    </rdf:RDF>
  </metadata>
  <g
     transform="translate(-7.1769265,-63.671584)"
     inkscape:label="Layer 1"
     inkscape:groupmode="layer"
     id="layer1"
     style="display:inline">
    <path
       style="fill:#62a5df;fill-opacity:1;stroke:none;stroke-width:0.269751;stroke-miterlimit:4;stroke-dasharray:none;stroke-opacity:1"
       d="m 111.55921,114.98545 c -20.454982,-5.3162 -37.230898,-9.71506 -37.279827,-9.77523 -0.129109,-0.15879 28.281707,-41.588654 28.485367,-41.538591 0.17714,0.04354 47.43343,60.588921 47.34317,60.656691 -0.56671,0.42542 -6.45025,-1.00054 -38.54871,-9.34287 z"
       id="path877" />
    <path
       style="fill:#62a5df;fill-opacity:1;stroke:none;stroke-width:0.269751;stroke-miterlimit:4;stroke-dasharray:none"
       d="m 162.94958,145.11996 c -0.28753,-0.0512 -25.40192,-1.85576 -55.80972,-4.01001 -30.40782,-2.15423 -55.675951,-3.98098 -56.151417,-4.05943 l -0.86448,-0.14265 2.171501,-2.53245 c 1.194325,-1.39284 6.801194,-8.2432 12.459708,-15.22301 5.658514,-6.97979 10.370085,-12.72409 10.470151,-12.76509 0.371306,-0.15214 73.357977,18.90173 73.636057,19.22337 0.15895,0.18388 3.6163,4.46753 7.68302,9.51922 4.06671,5.0517 7.57208,9.40409 7.78968,9.67199 0.36245,0.44621 0.3429,0.48389 -0.23301,0.44918 -0.34577,-0.0209 -0.86394,-0.0799 -1.15149,-0.13112 z"
       id="path2845" />
    <path
       style="fill:#62a5df;fill-opacity:1;stroke:none;stroke-width:0.269751;stroke-miterlimit:4;stroke-dasharray:none"
       d="m 158.89782,144.7036 c -1.5096,-0.12573 -22.9774,-1.67354 -47.7062,-3.43957 -47.596288,-3.39916 -59.930594,-4.2973 -60.432691,-4.40048 -0.170383,-0.035 0.580981,-1.12827 1.669695,-2.42946 1.088714,-1.30119 6.477563,-7.87676 11.975221,-14.61236 5.497654,-6.73559 10.238181,-12.47801 10.534496,-12.76091 0.643802,-0.61468 -1.904528,-1.19762 23.705884,5.42282 27.978875,7.23269 49.590135,13.01144 50.092425,13.39451 0.46942,0.358 15.38926,18.78529 15.38926,19.00707 0,0.16458 -1.83786,0.10075 -5.22809,-0.18162 z"
       id="path2847" />
    <path
       style="fill:#4f87ce;fill-opacity:1;stroke:none;stroke-width:0.19268;stroke-miterlimit:4;stroke-dasharray:none"
       d="m 23.118562,172.24139 c 0.208066,-0.36946 25.21874,-40.37837 25.337379,-40.53153 0.03414,-0.0441 1.189812,-0.0441 2.568192,0 l 2.506146,0.0801 -2.358087,2.7833 -2.358084,2.78331 0.735199,0.19711 c 0.404354,0.10842 25.614311,1.95704 56.022113,4.10807 30.40782,2.15102 55.77286,3.9778 56.36677,4.05951 0.98747,0.13585 1.63508,0.71296 7.57089,6.74682 l 6.49106,6.59826 -1.2972,0.21456 c -0.71346,0.118 -13.58972,1.27456 -28.61391,2.57012 -60.621949,5.22758 -120.456687,10.43199 -121.778185,10.59224 -1.128798,0.13689 -1.360916,0.0975 -1.192283,-0.20187 z"
       id="path2849" />
    <path
       style="fill:#4f87ce;fill-opacity:1;stroke:none;stroke-width:0.19268;stroke-miterlimit:4;stroke-dasharray:none"
       d="m 35.515178,191.48781 c -15.024189,-1.03624 -27.6627011,-1.92892 -28.0855843,-1.98375 -0.7187388,-0.0932 -0.2925898,-0.56339 6.5350963,-7.21073 4.017188,-3.91107 7.774505,-7.55932 8.349594,-8.10721 1.040147,-0.99095 1.064066,-0.99782 4.574569,-1.31372 1.940922,-0.17466 35.936498,-3.1299 75.545737,-6.56721 39.60922,-3.4373 72.70447,-6.32935 73.54498,-6.42678 l 1.52821,-0.17711 -0.9931,-1.08288 -0.99311,-1.08289 h 1.1709 1.17089 l 1.64392,5.87319 c 0.90417,3.23026 1.58218,5.93896 1.5067,6.01933 -0.0755,0.0803 -25.63864,5.51328 -56.80703,12.07316 -50.67096,10.66451 -56.918832,11.92407 -59.022428,11.89885 -1.293948,-0.0155 -14.645151,-0.87602 -29.669344,-1.91225 z"
       id="path2851" />
    <path
       style="fill:#4f87ce;fill-opacity:1;stroke:none;stroke-width:0.19268;stroke-miterlimit:4;stroke-dasharray:none"
       d="m 67.901333,198.86679 c -2.50065,-0.91894 -4.781899,-1.77542 -5.069445,-1.90328 -0.437867,-0.1947 -0.14941,-0.43342 1.775471,-1.46929 l 2.29828,-1.23684 57.373731,-12.07021 c 31.55555,-6.63862 57.51782,-12.19688 57.69393,-12.35168 0.23621,-0.20766 1.44016,1.10678 4.59124,5.01258 2.3491,2.91172 4.17238,5.39048 4.05177,5.50835 -0.12062,0.11786 -8.98025,3.56455 -19.68805,7.65929 l -19.46873,7.44496 -25.36203,2.45774 -25.36204,2.45774 -14.143751,0.0807 -14.143741,0.0807 z"
       id="path2853" />
    <path
       style="fill:#4f87ce;fill-opacity:1;stroke:none;stroke-width:0.19268;stroke-miterlimit:4;stroke-dasharray:none"
       d="m 151.67516,197.03104 c 0.0936,-0.49838 0.19839,-0.93088 0.23283,-0.96111 0.0345,-0.0302 8.8262,-3.40535 19.53723,-7.50027 10.71102,-4.09492 19.75743,-7.55923 20.10314,-7.69846 l 0.62855,-0.25317 -0.74446,-0.82736 c -0.82323,-0.9149 -0.79212,-0.98526 0.86238,-1.95001 0.66948,-0.39037 1.19744,-0.54502 1.32381,-0.38776 0.58367,0.7264 12.38919,19.91379 12.3024,19.99496 -0.0557,0.0521 -12.32207,0.18345 -27.25865,0.29198 l -27.15743,0.19733 z"
       id="path2855" />
    <path
       style="fill:#4f87ce;fill-opacity:1;stroke:none;stroke-width:0.19268;stroke-miterlimit:4;stroke-dasharray:none"
       d="m 156.67589,144.55877 c -2.5879,-0.20671 -22.29122,-1.63149 -43.78515,-3.1662 -46.367158,-3.31072 -62.020261,-4.45013 -62.261634,-4.53214 -0.09801,-0.0333 0.709483,-1.12515 1.794427,-2.42634 1.084945,-1.30119 6.105669,-7.43299 11.157167,-13.62622 5.051495,-6.19321 9.780816,-11.94436 10.509603,-12.78034 l 1.325066,-1.51995 5.210031,1.32514 c 28.47491,7.24246 67.49564,17.5784 68.11424,18.04232 0.46671,0.35002 15.38627,18.78769 15.38627,19.01444 0,0.18416 -2.25953,0.0839 -7.45002,-0.33071 z"
       id="path2857" />
    <path
       style="fill:#4f87ce;fill-opacity:1;stroke:none;stroke-width:0.19268;stroke-miterlimit:4;stroke-dasharray:none"
       d="m 35.841743,152.11607 12.612931,-20.17098 2.320785,-0.009 2.320784,-0.009 -0.621657,0.81752 c -0.341914,0.44963 -1.320144,1.64887 -2.173843,2.66498 -1.118061,1.33076 -1.458932,1.90883 -1.218779,2.06687 0.183371,0.12066 1.352375,0.29927 2.597796,0.39692 6.040765,0.47357 27.704211,2.04501 56.1136,4.07043 51.71993,3.68731 54.24143,3.88481 54.99309,4.30754 0.69866,0.39291 4.62493,4.23081 9.88026,9.6579 2.52699,2.60956 2.84408,3.03419 2.35264,3.15038 -0.87959,0.20798 -11.855,1.18313 -68.92511,6.12385 -29.113863,2.52047 -59.345229,5.14892 -67.180809,5.84098 -7.835584,0.69206 -14.570088,1.25881 -14.965565,1.25944 -0.674782,0.001 0.05744,-1.24067 11.893877,-20.16986 z"
       id="path2859" />
    <path
       style="fill:#4067ba;fill-opacity:1;stroke:none;stroke-width:0.19268;stroke-miterlimit:4;stroke-dasharray:none"
       d="m 35.810637,152.17767 c 6.920795,-11.06016 12.611536,-20.14581 12.64609,-20.19032 0.03454,-0.0445 1.090164,-0.0445 2.345792,0 l 2.282965,0.081 -2.164374,2.59809 c -2.212273,2.65558 -2.337744,3.09175 -0.892711,3.10342 0.29046,0.002 3.819413,0.25412 7.842121,0.55948 4.022699,0.30536 21.312182,1.55803 38.421069,2.7837 62.557481,4.48156 65.762661,4.72898 66.488281,5.13247 0.71992,0.40031 4.52026,4.11179 9.74613,9.51823 2.23868,2.31602 2.92856,3.18343 2.61405,3.28671 -0.47858,0.15717 -20.72447,1.95326 -75.450208,6.69346 -34.995769,3.03125 -42.038792,3.64479 -65.481681,5.7044 -5.247684,0.46104 -9.86514,0.83838 -10.261016,0.83853 -0.675891,2.6e-4 0.04732,-1.22561 11.863492,-20.1091 z"
       id="path2865" />
    <path
       style="fill:#314ba3;fill-opacity:1;stroke:none;stroke-width:0.19268;stroke-miterlimit:4;stroke-dasharray:none"
       d="m 51.591522,192.45125 c -5.103912,-0.35598 -16.867089,-1.16351 -26.140394,-1.79451 -9.273302,-0.63101 -17.1384268,-1.20815 -17.4780543,-1.28256 -0.6067776,-0.13291 -0.6090463,-0.14541 -0.1307006,-0.72017 0.4317695,-0.51879 10.0464109,-9.96669 14.0191599,-13.77603 1.156235,-1.10868 1.764342,-1.483 2.613568,-1.60874 0.968733,-0.14345 47.983786,-4.248 127.626219,-11.14212 13.37081,-1.15742 24.59265,-2.17008 24.93743,-2.25033 0.62021,-0.14437 0.61617,-0.15757 -0.37981,-1.24358 l -1.00666,-1.09768 h 1.05233 1.05233 l 1.48483,5.49703 c 0.81667,3.02336 1.48449,5.68653 1.48407,5.91814 -7.3e-4,0.46633 0.74958,0.30087 -49.40612,10.89314 -34.071354,7.19545 -55.669565,11.67814 -60.857789,12.63095 -4.594989,0.84388 -6.467411,0.84153 -18.870409,-0.0236 z"
       id="path2867" />
    <path
       style="fill:#2b3681;fill-opacity:1;stroke:none;stroke-width:0.19268;stroke-miterlimit:4;stroke-dasharray:none"
       d="m 67.733212,198.65974 c -2.551957,-0.95395 -4.639918,-1.83066 -4.639918,-1.94823 0,-0.11757 0.970459,-0.71547 2.156579,-1.32869 2.093505,-1.08229 3.127617,-1.3188 35.354877,-8.08602 18.25907,-3.83413 43.78515,-9.23419 56.72465,-12.00015 12.93949,-2.76595 23.82995,-5.08675 24.20102,-5.15732 0.57291,-0.10895 0.98126,0.22179 2.70704,2.19262 3.48787,3.98307 6.26258,7.80399 5.84702,8.05161 -0.40442,0.24098 -15.55252,6.10989 -29.61823,11.47515 l -9.14914,3.48987 -24.83337,2.43262 -24.83337,2.43262 -14.638616,0.0902 -14.638623,0.0902 z"
       id="path2869" />
    <path
       style="fill:#2b3681;fill-opacity:1;stroke:none;stroke-width:0.19268;stroke-miterlimit:4;stroke-dasharray:none"
       d="m 151.78861,197.02622 c 0.0722,-0.52323 0.32669,-0.8537 0.79748,-1.03527 0.38036,-0.14668 9.3963,-3.6066 20.03544,-7.68871 10.63914,-4.08211 19.43367,-7.51599 19.5434,-7.63084 0.10973,-0.11484 -0.0961,-0.50454 -0.45745,-0.86597 -0.36134,-0.36144 -0.65698,-0.75802 -0.65698,-0.88131 0,-0.232 1.89905,-1.34879 2.29356,-1.34879 0.19957,0 5.02396,7.65783 10.34545,16.4215 l 1.94361,3.2008 -8.14086,0.18312 c -4.47749,0.10076 -16.61635,0.23509 -26.97524,0.29858 l -18.83436,0.11544 z"
       id="path2871" />
    <path
       style="fill:#2b3681;fill-opacity:1;stroke:none;stroke-width:0.19268;stroke-miterlimit:4;stroke-dasharray:none"
       d="m 151.83992,197.28514 c 0,-0.73083 0.82511,-1.20866 4.44387,-2.57355 7.22286,-2.72425 35.94712,-13.84781 36.05516,-13.96247 0.0617,-0.0654 -0.15799,-0.50804 -0.48815,-0.98353 -0.48838,-0.70333 -0.53366,-0.912 -0.24283,-1.11921 0.91549,-0.65233 1.34207,-0.82379 1.69285,-0.68048 0.34043,0.1391 11.41597,17.69007 11.75241,18.62358 0.20333,0.56416 -4.68997,0.71166 -30.79792,0.92834 -19.8572,0.16481 -22.41539,0.13825 -22.41539,-0.23268 z"
       id="path2873" />
  </g>
</svg>
