<?xml version="1.0" encoding="UTF-8" standalone="no"?>
<svg
   xmlns:dc="http://purl.org/dc/elements/1.1/"
   xmlns:cc="http://creativecommons.org/ns#"
   xmlns:rdf="http://www.w3.org/1999/02/22-rdf-syntax-ns#"
   xmlns:svg="http://www.w3.org/2000/svg"
   xmlns="http://www.w3.org/2000/svg"
   xmlns:sodipodi="http://sodipodi.sourceforge.net/DTD/sodipodi-0.dtd"
   xmlns:inkscape="http://www.inkscape.org/namespaces/inkscape"
   inkscape:version="1.0 (4035a4fb49, 2020-05-01)"
   sodipodi:docname="wallet.svg"
   xml:space="preserve"
   style="enable-background:new 0 0 986 986;"
   viewBox="0 0 986 986"
   height="986px"
   width="986px"
   y="0px"
   x="0px"
   id="Capa_1"
   version="1.1"><metadata
   id="metadata43"><rdf:RDF><cc:Work
       rdf:about=""><dc:format>image/svg+xml</dc:format><dc:type
         rdf:resource="http://purl.org/dc/dcmitype/StillImage" /></cc:Work></rdf:RDF></metadata><defs
   id="defs41" /><sodipodi:namedview
   inkscape:current-layer="Capa_1"
   inkscape:window-maximized="1"
   inkscape:window-y="-8"
   inkscape:window-x="-8"
   inkscape:cy="493"
   inkscape:cx="493"
   inkscape:zoom="0.55578093"
   showgrid="false"
   id="namedview39"
   inkscape:window-height="715"
   inkscape:window-width="1366"
   inkscape:pageshadow="2"
   inkscape:pageopacity="0"
   guidetolerance="10"
   gridtolerance="10"
   objecttolerance="10"
   borderopacity="1"
   bordercolor="#666666"
   pagecolor="#ffffff" />
<g
   style="fill:#574209;fill-opacity:1"
   id="g6">
	<path
   style="fill:#574209;fill-opacity:1"
   id="path2"
   d="M60,856.55h799.8c33.101,0,60-26.9,60-60v-135.4H632.7c-21.5,0-42.5-4.199-62.2-12.6c-19-8-36.1-19.6-50.7-34.199   c-14.6-14.6-26.2-31.701-34.2-50.701C477.3,543.95,473,522.95,473,501.45v-16.9c0-21.5,4.2-42.5,12.6-62.2   c8-19,19.601-36.1,34.2-50.7c14.601-14.6,31.7-26.2,50.7-34.2c19.7-8.3,40.7-12.6,62.2-12.6h287.1v-135.4c0-33.1-26.899-60-60-60   H60c-33.1,0-60,26.9-60,60v607.1C0,829.649,26.9,856.55,60,856.55z" />
	<path
   style="fill:#574209;fill-opacity:1"
   id="path4"
   d="M986,429.85c0-24.9-20.1-45-45-45h-21.2H632.7c-55.101,0-99.7,44.6-99.7,99.7v16.9c0,55.1,44.6,99.699,99.7,99.699h287.1   H941c24.9,0,45-20.1,45-45V429.85z M649,545.95c-29.3,0-53-23.699-53-53c0-29.3,23.7-53,53-53s53,23.7,53,53   C702,522.251,678.3,545.95,649,545.95z" />
</g>
<g
   style="fill:#574209;fill-opacity:1"
   id="g8">
</g>
<g
   style="fill:#574209;fill-opacity:1"
   id="g10">
</g>
<g
   style="fill:#574209;fill-opacity:1"
   id="g12">
</g>
<g
   style="fill:#574209;fill-opacity:1"
   id="g14">
</g>
<g
   style="fill:#574209;fill-opacity:1"
   id="g16">
</g>
<g
   style="fill:#574209;fill-opacity:1"
   id="g18">
</g>
<g
   style="fill:#574209;fill-opacity:1"
   id="g20">
</g>
<g
   style="fill:#574209;fill-opacity:1"
   id="g22">
</g>
<g
   style="fill:#574209;fill-opacity:1"
   id="g24">
</g>
<g
   style="fill:#574209;fill-opacity:1"
   id="g26">
</g>
<g
   style="fill:#574209;fill-opacity:1"
   id="g28">
</g>
<g
   style="fill:#574209;fill-opacity:1"
   id="g30">
</g>
<g
   style="fill:#574209;fill-opacity:1"
   id="g32">
</g>
<g
   style="fill:#574209;fill-opacity:1"
   id="g34">
</g>
<g
   style="fill:#574209;fill-opacity:1"
   id="g36">
</g>
</svg>
