<svg width="487" height="313" xmlns="http://www.w3.org/2000/svg" xmlns:xlink="http://www.w3.org/1999/xlink" overflow="hidden"><defs><clipPath id="clip0"><path d="M400 180 887 180 887 493 400 493Z" fill-rule="evenodd" clip-rule="evenodd"/></clipPath><clipPath id="clip1"><path d="M400 180 886 180 886 492 400 492Z" fill-rule="evenodd" clip-rule="evenodd"/></clipPath><clipPath id="clip2"><path d="M400 180 886 180 886 492 400 492Z" fill-rule="evenodd" clip-rule="evenodd"/></clipPath></defs><g clip-path="url(#clip0)" transform="translate(-400 -180)"><g clip-path="url(#clip1)"><g clip-path="url(#clip2)"><path d="M247.309 254.905C201.964 243.12 164.774 233.368 164.666 233.235 164.38 232.883 227.362 141.039 227.813 141.15 228.206 141.247 332.966 275.466 332.766 275.617 331.51 276.56 318.467 273.398 247.309 254.905Z" fill="#62A5DF" transform="matrix(1.09372 0 -0 1 385.219 42.2521)"/><path d="M361.234 321.708C360.596 321.595 304.922 317.594 237.512 312.819 170.103 308.043 114.087 303.994 113.033 303.82L111.117 303.503 115.931 297.889C118.579 294.802 131.008 279.615 143.552 264.142 156.096 248.669 166.541 235.935 166.763 235.844 167.586 235.507 329.386 277.746 330.002 278.459 330.355 278.867 338.019 288.363 347.035 299.562 356.05 310.761 363.821 320.409 364.303 321.003 365.107 321.992 365.063 322.076 363.786 321.999 363.02 321.953 361.871 321.822 361.234 321.708Z" fill="#62A5DF" transform="matrix(1.09372 0 -0 1 385.219 42.2521)"/><path d="M352.252 320.785C348.905 320.507 301.314 317.075 246.494 313.16 140.981 305.625 113.638 303.634 112.525 303.405 112.147 303.328 113.813 300.904 116.226 298.019 118.64 295.135 130.586 280.558 142.773 265.626 154.961 250.694 165.47 237.964 166.127 237.337 167.554 235.974 161.905 234.682 218.679 249.359 280.704 265.392 328.612 278.203 329.726 279.052 330.767 279.846 363.842 320.696 363.842 321.188 363.842 321.553 359.767 321.411 352.252 320.785Z" fill="#62A5DF" transform="matrix(1.09372 0 -0 1 385.219 42.2521)"/><path d="M51.2502 381.832C51.7115 381.013 107.156 292.32 107.419 291.98 107.495 291.882 110.057 291.882 113.113 291.98L118.668 292.158 113.441 298.328 108.213 304.498 109.843 304.935C110.739 305.175 166.626 309.274 234.035 314.042 301.445 318.81 357.675 322.86 358.992 323.041 361.181 323.342 362.616 324.622 375.775 337.998L390.165 352.625 387.289 353.101C385.708 353.362 357.163 355.926 323.857 358.798 189.467 370.387 56.8229 381.925 53.8934 382.28 51.391 382.583 50.8764 382.496 51.2502 381.832Z" fill="#4F87CE" transform="matrix(1.09372 0 -0 1 385.219 42.2521)"/><path d="M78.7316 424.499C45.4253 422.201 17.4077 420.223 16.4703 420.101 14.8769 419.894 15.8216 418.852 30.9575 404.116 39.863 395.446 48.1924 387.358 49.4673 386.143 51.7731 383.947 51.8262 383.931 59.6084 383.231 63.9111 382.844 139.274 376.293 227.082 368.673 314.889 361.053 388.256 354.642 390.119 354.425L393.507 354.033 391.306 351.632 389.104 349.232 391.7 349.232 394.295 349.232 397.94 362.252C399.944 369.413 401.447 375.417 401.28 375.596 401.112 375.774 344.443 387.818 275.347 402.36 163.018 426.001 149.167 428.794 144.504 428.738 141.635 428.703 112.038 426.796 78.7316 424.499Z" fill="#4F87CE" transform="matrix(1.09372 0 -0 1 385.219 42.2521)"/><path d="M150.527 440.857C144.983 438.82 139.926 436.921 139.288 436.637 138.318 436.206 138.957 435.677 143.224 433.38L148.319 430.638 275.508 403.881C345.462 389.164 403.016 376.842 403.406 376.499 403.93 376.038 406.599 378.952 413.585 387.611 418.792 394.066 422.834 399.561 422.567 399.822 422.299 400.083 402.659 407.724 378.921 416.802L335.762 433.306 279.539 438.754 223.315 444.203 191.96 444.382 160.606 444.56Z" fill="#4F87CE" transform="matrix(1.09372 0 -0 1 385.219 42.2521)"/><path d="M336.24 436.787C336.448 435.682 336.68 434.723 336.756 434.656 336.833 434.59 356.323 427.107 380.067 418.03 403.812 408.952 423.866 401.272 424.633 400.963L426.026 400.402 424.376 398.568C422.551 396.54 422.62 396.384 426.288 394.245 427.772 393.38 428.942 393.037 429.222 393.385 430.516 394.996 456.687 437.531 456.495 437.711 456.371 437.827 429.179 438.118 396.067 438.358L335.863 438.796Z" fill="#4F87CE" transform="matrix(1.09372 0 -0 1 385.219 42.2521)"/><path d="M347.326 320.464C341.589 320.006 297.91 316.847 250.261 313.445 147.472 306.106 112.772 303.58 112.237 303.398 112.02 303.324 113.81 300.904 116.215 298.019 118.62 295.135 129.75 281.542 140.949 267.812 152.147 254.083 162.631 241.333 164.247 239.48L167.184 236.111 178.734 239.048C241.858 255.104 328.361 278.017 329.733 279.045 330.767 279.821 363.842 320.695 363.842 321.197 363.842 321.606 358.833 321.383 347.326 320.464Z" fill="#4F87CE" transform="matrix(1.09372 0 -0 1 385.219 42.2521)"/><path d="M79.4556 337.218 107.416 292.502 112.561 292.482 117.706 292.462 116.328 294.274C115.57 295.271 113.401 297.929 111.509 300.182 109.03 303.132 108.275 304.414 108.807 304.764 109.214 305.031 111.805 305.427 114.566 305.644 127.957 306.694 175.982 310.177 238.961 314.667 353.616 322.841 359.206 323.279 360.872 324.216 362.421 325.087 371.125 333.595 382.775 345.627 388.377 351.411 389.08 352.353 387.991 352.61 386.041 353.071 361.71 355.233 235.194 366.186 170.653 371.773 103.635 377.6 86.265 379.135 68.8947 380.669 53.9654 381.925 53.0887 381.927 51.5928 381.929 53.216 379.176 79.4556 337.213Z" fill="#4F87CE" transform="matrix(1.09372 0 -0 1 385.219 42.2521)"/><path d="M79.3866 337.354C94.7289 312.836 107.344 292.694 107.421 292.595 107.498 292.497 109.838 292.497 112.621 292.595L117.682 292.775 112.884 298.535C107.98 304.422 107.702 305.388 110.905 305.414 111.549 305.419 119.372 305.978 128.29 306.655 137.208 307.332 175.536 310.108 213.463 312.826 352.144 322.761 359.249 323.309 360.858 324.203 362.454 325.091 370.878 333.319 382.463 345.304 387.426 350.438 388.955 352.361 388.258 352.59 387.197 352.938 342.315 356.92 220.997 367.428 143.417 374.148 127.803 375.508 75.8342 380.074 64.2009 381.096 53.9647 381.933 53.0871 381.933 51.5887 381.934 53.192 379.216 79.3866 337.354Z" fill="#4067BA" transform="matrix(1.09372 0 -0 1 385.219 42.2521)"/><path d="M114.37 426.634C103.056 425.845 76.9787 424.055 56.4212 422.656 35.8637 421.257 18.428 419.978 17.6751 419.813 16.3299 419.518 16.3249 419.491 17.3853 418.217 18.3425 417.066 39.6566 396.122 48.4636 387.677 51.0268 385.219 52.3749 384.39 54.2575 384.111 56.405 383.793 160.63 374.694 337.185 359.411 366.826 356.845 391.703 354.6 392.467 354.422 393.842 354.102 393.833 354.073 391.625 351.665L389.394 349.232 391.726 349.232 394.059 349.232 397.351 361.418C399.161 368.12 400.642 374.024 400.641 374.537 400.639 375.571 402.303 375.204 291.115 398.686 215.584 414.637 167.705 424.574 156.203 426.687 146.017 428.557 141.866 428.552 114.37 426.634Z" fill="#314BA3" transform="matrix(1.09372 0 -0 1 385.219 42.2521)"/><path d="M150.154 440.398C144.497 438.283 139.868 436.339 139.868 436.079 139.868 435.818 142.019 434.493 144.649 433.133 149.29 430.734 151.582 430.21 223.025 415.208 263.503 406.708 320.09 394.737 348.775 388.605 377.46 382.474 401.602 377.329 402.425 377.172 403.695 376.931 404.6 377.664 408.426 382.033 416.158 390.863 422.309 399.333 421.388 399.882 420.491 400.416 386.91 413.427 355.729 425.321L335.446 433.057 280.395 438.45 225.343 443.843 192.891 444.043 160.44 444.243Z" fill="#2B3681" transform="matrix(1.09372 0 -0 1 385.219 42.2521)"/><path d="M336.492 436.776C336.652 435.616 337.216 434.884 338.26 434.481 339.103 434.156 359.09 426.486 382.675 417.437 406.26 408.387 425.756 400.775 426 400.52 426.243 400.266 425.787 399.402 424.986 398.601 424.185 397.799 423.529 396.92 423.529 396.647 423.529 396.133 427.739 393.657 428.614 393.657 429.056 393.657 439.751 410.633 451.548 430.061L455.857 437.156 437.81 437.562C427.884 437.786 400.974 438.084 378.01 438.224L336.257 438.48Z" fill="#2B3681" transform="matrix(1.09372 0 -0 1 385.219 42.2521)"/><path d="M336.605 437.35C336.605 435.73 338.435 434.671 346.457 431.645 362.469 425.606 426.146 400.947 426.385 400.693 426.522 400.548 426.035 399.566 425.303 398.512 424.221 396.953 424.12 396.491 424.765 396.031 426.794 394.585 427.74 394.205 428.518 394.523 429.272 394.831 453.825 433.739 454.571 435.808 455.022 437.059 444.174 437.386 386.297 437.866 342.277 438.232 336.605 438.173 336.605 437.35Z" fill="#2B3681" transform="matrix(1.09372 0 -0 1 385.219 42.2521)"/></g></g></g></svg>